# ProBuilder 5.0.7
# https://unity3d.com/unity/features/worldbuilding/probuilder
# 29/04/2023 13:14:27

mtllib ./Canon.mtl
o Canon

g Cylinder (1)
v -1.146848 0.6854904 0.6458874
v -1.146848 -0.5478474 -3.199913
v -0.7682177 1.30997 0.4456183
v -0.7682177 0.07663264 -3.400182
v -0.01095704 1.30997 0.4456183
v -0.01095704 0.07663257 -3.400182
v 0.3676733 0.6854904 0.6458874
v 0.3676733 -0.5478476 -3.199913
v -0.01095716 0.06101033 0.8461565
v -0.01095716 -1.172328 -2.999643
v -0.7682177 0.06101033 0.8461565
v -0.7682177 -1.172328 -2.999643
v -0.3895874 0.6854904 0.6458874
v -0.3895874 -0.5478474 -3.199913

vt -0.5316871 -2.44939
vt -0.5316871 9.55061
vt 1.718313 -2.44939
vt 1.718313 9.55061
vt -2.282556 -2.44939
vt -2.282556 9.55061
vt -0.03255629 -2.44939
vt -0.03255629 9.55061
vt -2.875869 -2.44939
vt -2.875869 9.55061
vt -0.6258688 -2.44939
vt -0.6258688 9.55061
vt -1.718313 -2.44939
vt -1.718313 9.55061
vt 0.5316874 -2.44939
vt 0.5316874 9.55061
vt 0.0325563 -2.44939
vt 0.0325563 9.55061
vt 2.282556 -2.44939
vt 2.282556 9.55061
vt 0.6258688 -2.44939
vt 0.6258688 9.55061
vt 2.875869 -2.44939
vt 2.875869 9.55061
vt -3.407556 1.353414
vt -1.157556 1.353414
vt -2.282556 3.301971
vt 3.407556 1.353414
vt 1.157556 1.353414
vt 2.282556 3.301971
vt -0.03255594 3.301971
vt 0.03255594 3.301971
vt 1.092444 1.353414
vt -1.092444 1.353414
vt -0.0325563 -0.5951433
vt 0.0325563 -0.5951433
vt -2.282556 -0.5951433
vt 2.282556 -0.5951433

vn -0.3365603 -1.102871E-08 3.53688E-09
vn -0.1682801 0.2775467 -0.0890085
vn 0.1682802 0.2775467 -0.0890085
vn 0.3365603 -3.308615E-08 1.061064E-08
vn 0.1682801 -0.2775467 0.0890085
vn -0.1682802 -0.2775467 0.0890085
vn 0 0.1027782 0.3204833
vn 0 -0.1027782 -0.3204833

usemtl ProBuilderDefault_1
f 1/25/7 13/26/7 3/27/7
f 3/27/7 13/26/7 5/31/7
f 5/31/7 13/26/7 7/33/7
f 7/33/7 13/26/7 9/35/7
f 9/35/7 13/26/7 11/37/7
f 11/37/7 13/26/7 1/25/7
f 4/30/8 14/29/8 2/28/8
f 6/32/8 14/29/8 4/30/8
f 8/34/8 14/29/8 6/32/8
f 10/36/8 14/29/8 8/34/8
f 12/38/8 14/29/8 10/36/8
f 2/28/8 14/29/8 12/38/8
f 4/4/2 2/2/1 1/1/1
f 1/1/1 3/3/2 4/4/2
f 6/8/3 4/6/2 3/5/2
f 3/5/2 5/7/3 6/8/3
f 8/12/4 6/10/3 5/9/3
f 5/9/3 7/11/4 8/12/4
f 10/16/5 8/14/4 7/13/4
f 7/13/4 9/15/5 10/16/5
f 12/20/6 10/18/5 9/17/5
f 9/17/5 11/19/6 12/20/6
f 2/24/1 12/22/6 11/21/6
f 11/21/6 1/23/1 2/24/1

