# ProBuilder 5.0.7
# https://unity3d.com/unity/features/worldbuilding/probuilder
# 29/04/2023 13:05:57

mtllib ./Camion.mtl
o Camion

g Camion
v -2.861023E-07 0 3.370948
v -2.830151 -3.576278E-08 3.370948
v -2.861023E-07 1.497483 3.370948
v -2.830151 1.497483 3.370948
v -2.830151 -3.576278E-08 0
v -2.830151 1.497483 0
v -2.830151 -3.576278E-08 -6.500203
v -3.814697E-07 1.192093E-08 -6.500203
v -2.830151 1.497483 -6.500203
v -3.814697E-07 1.497483 -6.500203
v -2.861023E-07 0 0
v -2.861023E-07 1.497483 0
v -0.1797737 0.9464245 -0.5458145
v -2.650378 0.9464245 -0.5458145
v -0.1797737 0.9464245 -5.954388
v -2.650378 0.9464245 -5.954388
v -3.814697E-07 2.598639 0
v -2.830151 2.598639 0
v -0.1797737 2.598639 -0.5458145
v -2.650378 2.598639 -0.5458145
v -3.814697E-07 2.598639 -6.500203
v -0.1797737 2.598639 -5.954388
v -2.830151 2.598639 -6.500203
v -2.650378 2.598639 -5.954388
v -0.1797737 1.497483 -0.5458145
v -2.650378 1.497483 -0.5458145
v -0.1797737 1.497483 -5.954388
v -2.650378 1.497483 -5.954388

vt -3.576279E-07 0
vt -3.537689 -4.470348E-08
vt -3.576279E-07 1.871854
vt -3.537689 1.871854
vt 4.213685 -4.470348E-08
vt 4.213685 1.871854
vt 3.537689 -4.470348E-08
vt 3.537689 1.871854
vt -4.213685 0
vt -4.213685 1.871854
vt 4.207036E-07 4.213685
vt 3.537689 4.213685
vt -3.537689 4.213685
vt -3.537689 -8.125254
vt -4.768372E-07 -8.125254
vt -8.125254 1.871854
vt -8.125254 -4.470348E-08
vt 8.125254 1.490116E-08
vt 8.125254 1.871854
vt 0.2247171 -0.6822681
vt 3.312972 -0.6822681
vt 0.2247171 -7.442986
vt 3.312972 -7.442986
vt 3.537689 -8.125254
vt 0.2247171 1.871854
vt 3.312972 1.871854
vt 0.2247171 1.183031
vt 3.312972 1.183031
vt -7.442986 1.871854
vt -0.6822681 1.871854
vt -7.442986 1.183031
vt -0.6822681 1.183031
vt 0.6822681 1.871854
vt 7.442986 1.871854
vt 0.6822681 1.183031
vt 7.442986 1.183031
vt -3.312972 1.871854
vt -0.2247171 1.871854
vt -3.312972 1.183031
vt -0.2247171 1.183031
vt 8.125254 3.248299
vt 6.995895E-15 3.248299
vt -0.2247171 3.248299
vt -3.312972 3.248299
vt -0.6822681 3.248299
vt -7.442986 3.248299
vt -3.537689 3.248299
vt 3.312972 3.248299
vt 0.2247171 3.248299
vt -8.125254 3.248299
vt 7.442986 3.248299
vt 0.6822681 3.248299
vt 3.537689 3.248299

vn 0 0 0.8
vn -0.8 0 0
vn 0 0 -0.8
vn 0.8 0 0
vn 2.695755E-08 0.8 0
vn 1.010908E-08 -0.8 0

usemtl ProBuilderDefault_2
f 3/3/1 4/4/1 2/2/1 1/1/1
f 4/6/2 6/3/2 5/1/2 2/5/2
f 9/8/3 10/3/3 8/1/3 7/7/3
f 12/3/4 3/10/4 1/9/4 11/1/4
f 12/1/5 6/7/5 4/12/5 3/11/5
f 1/11/6 2/13/6 5/2/6 11/1/6
f 7/14/6 8/15/6 11/1/6 5/2/6
f 9/16/2 7/17/2 5/1/2 6/3/2
f 8/18/4 10/19/4 12/3/4 11/1/4
f 15/22/5 16/23/5 14/21/5 13/20/5
f 19/20/5 20/21/5 18/7/5 17/1/5
f 22/22/5 19/20/5 17/1/5 21/15/5
f 20/21/5 24/23/5 23/24/5 18/7/5
f 24/23/5 22/22/5 21/15/5 23/24/5
f 13/27/3 14/28/3 26/26/3 25/25/3
f 15/31/2 13/32/2 25/30/2 27/29/2
f 14/35/4 16/36/4 28/34/4 26/33/4
f 16/39/1 15/40/1 27/38/1 28/37/1
f 21/41/4 17/42/4 12/3/4 10/19/4
f 22/43/1 24/44/1 28/37/1 27/38/1
f 19/45/2 22/46/2 27/29/2 25/30/2
f 17/42/1 18/47/1 6/4/1 12/3/1
f 20/48/3 19/49/3 25/25/3 26/26/3
f 18/42/2 23/50/2 9/16/2 6/3/2
f 24/51/4 20/52/4 26/33/4 28/34/4
f 23/53/3 21/42/3 10/3/3 9/8/3

g Cube (1)
v -2.648 -0.16 3.370948
v -2.901779 -0.16 3.370948
v -2.648 0.4061687 3.370948
v -2.901779 0.4061687 3.370948
v -2.901779 -0.16 2.75902
v -2.901779 0.4061687 2.75902
v -2.648 -0.16 2.75902
v -2.648 0.4061687 2.75902

vt -3.576279E-07 0
vt -0.3172245 0
vt 0 0.7077109
vt -0.3172245 0.7077109
vt 4.213685 0
vt 3.448775 0
vt 4.213685 0.7077109
vt 3.448775 0.7077109
vt 0.3172245 0
vt 0.3172245 0.7077109
vt -3.448775 0
vt -4.213685 0
vt -3.448775 0.7077109
vt -4.213685 0.7077109
vt 0 4.213685
vt 0.3172245 4.213685
vt 0 3.448775
vt 0.3172245 3.448775
vt -0.3172245 3.448775
vt -0.3172245 4.213685

vn 0 0 0.8
vn -0.8 0 0
vn 0 0 -0.8
vn 0.8 0 3.740338E-07
vn 0 0.8 0
vn 0 -0.8 0

usemtl ProBuilderDefault_2
f 31/56/7 32/57/7 30/55/7 29/54/7
f 32/60/8 34/61/8 33/59/8 30/58/8
f 34/63/9 36/56/9 35/54/9 33/62/9
f 36/66/10 31/67/10 29/65/10 35/64/10
f 36/70/11 34/71/11 32/69/11 31/68/11
f 29/68/12 30/73/12 33/72/12 35/70/12

g Cube (1)
v -3.814697E-07 1.472 1.868635
v -2.830151 1.472 1.868635
v -3.814697E-07 2.12493 1.868635
v -2.830151 2.12493 1.868635
v -2.830151 1.472 0
v -2.830151 2.12493 0
v -2.861023E-07 1.472 0
v -3.814697E-07 2.12493 0

vt -7.916736E-07 0
vt -3.537689 0
vt -7.916736E-07 0.8161631
vt -3.537689 0.8161631
vt 2.335794 0
vt 2.335794 0.8161631
vt 3.537689 0
vt 3.537689 0.8161631
vt -2.335794 5.223535E-14
vt -2.335794 0.8161631
vt 4.768372E-07 2.335794
vt 3.537689 2.335794
vt -3.537689 2.335794

vn 1.078302E-07 0 0.8
vn -0.8 0 0
vn 0 0 -0.8
vn 0.8 1.168485E-07 4.08287E-08
vn 0 0.8 0
vn 0 -0.8 0

usemtl ProBuilderDefault_2
f 39/76/13 40/77/13 38/75/13 37/74/13
f 40/79/14 42/76/14 41/74/14 38/78/14
f 42/81/15 44/76/15 43/74/15 41/80/15
f 44/76/16 39/83/16 37/82/16 43/74/16
f 44/74/17 42/80/17 40/85/17 39/84/17
f 37/84/18 38/86/18 41/75/18 43/74/18

g Cube (2)
v -2.648 -0.16 -5.621052
v -2.901779 -0.16 -5.621052
v -2.648 0.4061687 -5.621052
v -2.901779 0.4061687 -5.621052
v -2.901779 -0.16 -6.23298
v -2.901779 0.4061687 -6.23298
v -2.648 -0.16 -6.23298
v -2.648 0.4061687 -6.23298

vt -3.576279E-07 0
vt -0.3172245 0
vt 0 0.7077109
vt -0.3172245 0.7077109
vt 4.213685 0
vt 3.448775 0
vt 4.213685 0.7077109
vt 3.448775 0.7077109
vt 0.3172245 0
vt 0.3172245 0.7077109
vt -3.448775 0
vt -4.213685 0
vt -3.448775 0.7077109
vt -4.213685 0.7077109
vt 0 4.213685
vt 0.3172245 4.213685
vt 0 3.448775
vt 0.3172245 3.448775
vt -0.3172245 3.448775
vt -0.3172245 4.213685

vn 0 0 0.8
vn -0.8 0 0
vn 0 0 -0.8
vn 0.8 0 3.740338E-07
vn 0 0.8 0
vn 0 -0.8 0

usemtl ProBuilderDefault_2
f 47/89/19 48/90/19 46/88/19 45/87/19
f 48/93/20 50/94/20 49/92/20 46/91/20
f 50/96/21 52/89/21 51/87/21 49/95/21
f 52/99/22 47/100/22 45/98/22 51/97/22
f 52/103/23 50/104/23 48/102/23 47/101/23
f 45/101/24 46/106/24 49/105/24 51/103/24

g Cube (3)
v 0.1999997 -0.16 3.370948
v -0.0537796 -0.16 3.370948
v 0.2 0.4061687 3.370948
v -0.0537796 0.4061687 3.370948
v -0.0537796 -0.16 2.75902
v -0.0537796 0.4061687 2.75902
v 0.2 -0.16 2.75902
v 0.2 0.4061687 2.75902

vt -3.576279E-07 0
vt -0.3172245 0
vt 0 0.7077109
vt -0.3172245 0.7077109
vt 4.213685 0
vt 3.448775 0
vt 4.213685 0.7077109
vt 3.448775 0.7077109
vt 0.3172245 0
vt 0.3172245 0.7077109
vt -3.448775 0
vt -4.213685 0
vt -3.448775 0.7077109
vt -4.213685 0.7077109
vt 0 4.213685
vt 0.3172245 4.213685
vt 0 3.448775
vt 0.3172245 3.448775
vt -0.3172245 3.448775
vt -0.3172245 4.213685

vn 0 0 0.8
vn -0.8 0 0
vn 0 0 -0.8
vn 0.8 0 3.740338E-07
vn 0 0.8 0
vn 0 -0.8 0

usemtl ProBuilderDefault_2
f 55/109/25 56/110/25 54/108/25 53/107/25
f 56/113/26 58/114/26 57/112/26 54/111/26
f 58/116/27 60/109/27 59/107/27 57/115/27
f 60/119/28 55/120/28 53/118/28 59/117/28
f 60/123/29 58/124/29 56/122/29 55/121/29
f 53/121/30 54/126/30 57/125/30 59/123/30

g Cube (4)
v 0.1999997 -0.16 -5.621051
v -0.0537796 -0.16 -5.621051
v 0.2 0.4061687 -5.621051
v -0.0537796 0.4061687 -5.621051
v -0.0537796 -0.16 -6.232979
v -0.0537796 0.4061687 -6.232979
v 0.2 -0.16 -6.232979
v 0.2 0.4061687 -6.232979

vt -3.576279E-07 0
vt -0.3172245 0
vt 0 0.7077109
vt -0.3172245 0.7077109
vt 4.213685 0
vt 3.448775 0
vt 4.213685 0.7077109
vt 3.448775 0.7077109
vt 0.3172245 0
vt 0.3172245 0.7077109
vt -3.448775 0
vt -4.213685 0
vt -3.448775 0.7077109
vt -4.213685 0.7077109
vt 0 4.213685
vt 0.3172245 4.213685
vt 0 3.448775
vt 0.3172245 3.448775
vt -0.3172245 3.448775
vt -0.3172245 4.213685

vn 0 0 0.8
vn -0.8 0 0
vn 0 0 -0.8
vn 0.8 0 3.740338E-07
vn 0 0.8 0
vn 0 -0.8 0

usemtl ProBuilderDefault_2
f 63/129/31 64/130/31 62/128/31 61/127/31
f 64/133/32 66/134/32 65/132/32 62/131/32
f 66/136/33 68/129/33 67/127/33 65/135/33
f 68/139/34 63/140/34 61/138/34 67/137/34
f 68/143/35 66/144/35 64/142/35 63/141/35
f 61/141/36 62/146/36 65/145/36 67/143/36

g Cube (5)
v -2.648 -0.16 0.8109474
v -2.901779 -0.16 0.8109474
v -2.648 0.4061687 0.8109474
v -2.901779 0.4061687 0.8109474
v -2.901779 -0.16 0.1990193
v -2.901779 0.4061687 0.1990193
v -2.648 -0.16 0.1990193
v -2.648 0.4061687 0.1990193

vt -3.576279E-07 0
vt -0.3172245 0
vt 0 0.7077109
vt -0.3172245 0.7077109
vt 4.213685 0
vt 3.448775 0
vt 4.213685 0.7077109
vt 3.448775 0.7077109
vt 0.3172245 0
vt 0.3172245 0.7077109
vt -3.448775 0
vt -4.213685 0
vt -3.448775 0.7077109
vt -4.213685 0.7077109
vt 0 4.213685
vt 0.3172245 4.213685
vt 0 3.448775
vt 0.3172245 3.448775
vt -0.3172245 3.448775
vt -0.3172245 4.213685

vn 0 0 0.8
vn -0.8 0 0
vn 0 0 -0.8
vn 0.8 0 3.740338E-07
vn 0 0.8 0
vn 0 -0.8 0

usemtl ProBuilderDefault_2
f 71/149/37 72/150/37 70/148/37 69/147/37
f 72/153/38 74/154/38 73/152/38 70/151/38
f 74/156/39 76/149/39 75/147/39 73/155/39
f 76/159/40 71/160/40 69/158/40 75/157/40
f 76/163/41 74/164/41 72/162/41 71/161/41
f 69/161/42 70/166/42 73/165/42 75/163/42

g Cube (6)
v 0.1999997 -0.16 0.8109479
v -0.0537796 -0.16 0.8109479
v 0.2 0.4061687 0.8109479
v -0.0537796 0.4061687 0.8109479
v -0.0537796 -0.16 0.1990197
v -0.0537796 0.4061687 0.1990197
v 0.2 -0.16 0.1990197
v 0.2 0.4061687 0.1990197

vt -3.576279E-07 0
vt -0.3172245 0
vt 0 0.7077109
vt -0.3172245 0.7077109
vt 4.213685 0
vt 3.448775 0
vt 4.213685 0.7077109
vt 3.448775 0.7077109
vt 0.3172245 0
vt 0.3172245 0.7077109
vt -3.448775 0
vt -4.213685 0
vt -3.448775 0.7077109
vt -4.213685 0.7077109
vt 0 4.213685
vt 0.3172245 4.213685
vt 0 3.448775
vt 0.3172245 3.448775
vt -0.3172245 3.448775
vt -0.3172245 4.213685

vn 0 0 0.8
vn -0.8 0 0
vn 0 0 -0.8
vn 0.8 0 3.740338E-07
vn 0 0.8 0
vn 0 -0.8 0

usemtl ProBuilderDefault_2
f 79/169/43 80/170/43 78/168/43 77/167/43
f 80/173/44 82/174/44 81/172/44 78/171/44
f 82/176/45 84/169/45 83/167/45 81/175/45
f 84/179/46 79/180/46 77/178/46 83/177/46
f 84/183/47 82/184/47 80/182/47 79/181/47
f 77/181/48 78/186/48 81/185/48 83/183/48

