# ProBuilder 5.0.7
# https://unity3d.com/unity/features/worldbuilding/probuilder
# 29/04/2023 13:05:08

mtllib ./Decap.mtl
o Decap

g Decap
v -2.861023E-07 1.192093E-08 2.81637
v -2.140956 1.192093E-08 2.81637
v -2.861023E-07 1.497484 2.81637
v -2.140956 1.497484 2.81637
v -2.140956 1.192093E-08 1.456275
v -2.140956 1.497484 1.456275
v -2.140956 5.960464E-08 -1.088112
v -2.861023E-07 5.960464E-08 -1.088112
v -2.140956 1.923886 -1.088112
v -2.861023E-07 1.923886 -1.088112
v -2.861023E-07 1.192093E-08 1.456275
v -2.861023E-07 1.497484 1.456275
v -2.140956 5.960464E-08 -0.3622532
v -2.861023E-07 5.960464E-08 -0.3622532
v -2.140956 1.497484 -0.3622532
v -2.861023E-07 1.497484 -0.3622532
v -0.2254151 1.074982 1.36023
v -1.915541 1.074982 1.36023
v -0.2254151 1.074982 -0.2662089
v -1.915541 1.074982 -0.2662089
v -0.2254151 1.497484 1.36023
v -1.915541 1.497484 1.36023
v -0.2254151 1.497484 -0.2662089
v -1.915541 1.497484 -0.2662089

vt -3.576279E-07 1.490116E-08
vt -2.676195 1.490116E-08
vt -3.576279E-07 1.871854
vt -2.676195 1.871854
vt 3.520463 1.490116E-08
vt 1.820343 1.490116E-08
vt 3.520463 1.871854
vt 1.820343 1.871854
vt 2.676195 7.450581E-08
vt 2.676195 2.404857
vt 3.576279E-07 2.404857
vt -1.820343 1.490116E-08
vt -3.520463 1.490116E-08
vt -1.820343 1.871854
vt -3.520463 1.871854
vt 3.576279E-07 3.520463
vt 2.676195 3.520463
vt 3.576279E-07 1.820343
vt 2.676195 1.820343
vt -2.676195 1.820343
vt -2.676195 3.520463
vt -2.676195 -0.4528165
vt -3.576279E-07 -0.4528165
vt -0.4528165 1.871854
vt -0.4528165 7.450581E-08
vt 0.4528165 7.450581E-08
vt 0.4528165 1.871854
vt 0.2817689 1.700288
vt 2.394426 1.700288
vt 0.2817689 -0.332761
vt 2.394426 -0.332761
vt 2.676195 -0.4528165
vt 0.2817689 1.871854
vt 2.394426 1.871854
vt 0.2817689 1.343728
vt 2.394426 1.343728
vt -0.332761 1.871854
vt 1.700288 1.871854
vt -0.332761 1.343728
vt 1.700288 1.343728
vt -1.700288 1.871854
vt 0.332761 1.871854
vt -1.700288 1.343728
vt 0.332761 1.343728
vt -2.394426 1.871854
vt -0.2817689 1.871854
vt -2.394426 1.343728
vt -0.2817689 1.343728
vt -2.676195 -1.36014
vt -3.576279E-07 -1.36014
vt -1.36014 2.404857
vt -1.36014 7.450581E-08
vt 1.36014 7.450581E-08
vt 1.36014 2.404857
vt 3.576279E-07 -1.338553
vt 2.676195 -1.338553
vt 3.576279E-07 -2.390849
vt 2.676195 -2.390849

vn 0 0 0.8
vn -0.8 0 0
vn 0 0 -0.8
vn 0.8 0 0
vn 0 0.8 0
vn 0 -0.8 0
vn 0 0.6897854 0.4052111

usemtl ProBuilderDefault_2
f 3/3/1 4/4/1 2/2/1 1/1/1
f 4/7/2 6/8/2 5/6/2 2/5/2
f 9/10/3 10/11/3 8/1/3 7/9/3
f 12/14/4 3/15/4 1/13/4 11/12/4
f 12/18/5 6/19/5 4/17/5 3/16/5
f 1/16/6 2/21/6 5/20/6 11/18/6
f 13/22/6 14/23/6 11/18/6 5/20/6
f 15/24/2 13/25/2 5/6/2 6/8/2
f 14/26/4 16/27/4 12/14/4 11/12/4
f 19/30/5 20/31/5 18/29/5 17/28/5
f 21/28/5 22/29/5 6/19/5 12/18/5
f 23/30/5 21/28/5 12/18/5 16/23/5
f 22/29/5 24/31/5 15/32/5 6/19/5
f 24/31/5 23/30/5 16/23/5 15/32/5
f 17/35/3 18/36/3 22/34/3 21/33/3
f 19/39/2 17/40/2 21/38/2 23/37/2
f 18/43/4 20/44/4 24/42/4 22/41/4
f 20/47/1 19/48/1 23/46/1 24/45/1
f 7/49/6 8/50/6 14/23/6 13/22/6
f 9/51/2 7/52/2 13/25/2 15/24/2
f 8/53/4 10/54/4 16/27/4 14/26/4
f 10/57/7 9/58/7 15/56/7 16/55/7

g Cube (1)
v -2.136 -0.16 3.034948
v -2.38978 -0.16 3.034948
v -2.136 0.4061687 3.034948
v -2.38978 0.4061687 3.034948
v -2.38978 -0.16 2.42302
v -2.38978 0.4061687 2.42302
v -2.136 -0.16 2.42302
v -2.136 0.4061687 2.42302

vt -3.576279E-07 0
vt -0.3172245 0
vt 0 0.7077109
vt -0.3172245 0.7077109
vt 4.213685 0
vt 3.448775 0
vt 4.213685 0.7077109
vt 3.448775 0.7077109
vt 0.3172245 0
vt 0.3172245 0.7077109
vt -3.448775 0
vt -4.213685 0
vt -3.448775 0.7077109
vt -4.213685 0.7077109
vt 0 4.213685
vt 0.3172245 4.213685
vt 0 3.448775
vt 0.3172245 3.448775
vt -0.3172245 3.448775
vt -0.3172245 4.213685

vn 0 0 0.8
vn -0.8 0 0
vn 0 0 -0.8
vn 0.8 0 3.740338E-07
vn 0 0.8 0
vn 0 -0.8 0

usemtl ProBuilderDefault_2
f 27/61/8 28/62/8 26/60/8 25/59/8
f 28/65/9 30/66/9 29/64/9 26/63/9
f 30/68/10 32/61/10 31/59/10 29/67/10
f 32/71/11 27/72/11 25/70/11 31/69/11
f 32/75/12 30/76/12 28/74/12 27/73/12
f 25/73/13 26/78/13 29/77/13 31/75/13

g Cube (1)
v -3.814697E-07 1.472 1.868635
v -2.140956 1.472 1.868635
v -3.814697E-07 2.12493 1.868635
v -2.140956 2.12493 1.868635
v -2.140956 1.472 1.444991
v -2.140956 2.12493 1.444991
v -2.861023E-07 1.472 1.444991
v -3.814697E-07 2.12493 1.444991

vt -4.768372E-07 0
vt -2.676195 0
vt -4.768372E-07 0.8161631
vt -2.676195 0.8161631
vt 2.335796 0
vt 1.806241 0
vt 2.335796 0.8161631
vt 1.806241 0.8161631
vt 2.676195 0
vt 2.676195 0.8161631
vt -1.806239 -7.153793E-15
vt -2.335794 -7.153794E-15
vt -1.806239 0.8161631
vt -2.335794 0.8161631
vt 4.768372E-07 2.335794
vt 2.676195 2.335794
vt 4.768372E-07 1.806239
vt 2.676195 1.806239
vt -2.676195 1.806239
vt -2.676195 2.335794

vn 0 0 0.8
vn -0.8 0 -7.203586E-07
vn 0 0 -0.8
vn 0.8 1.168485E-07 1.800897E-07
vn 0 0.8 0
vn 0 -0.8 0

usemtl ProBuilderDefault_2
f 35/81/14 36/82/14 34/80/14 33/79/14
f 36/85/15 38/86/15 37/84/15 34/83/15
f 38/88/16 40/81/16 39/79/16 37/87/16
f 40/91/17 35/92/17 33/90/17 39/89/17
f 40/95/18 38/96/18 36/94/18 35/93/18
f 33/93/19 34/98/19 37/97/19 39/95/19

g Cube (2)
v -2.136 -0.16 -0.453052
v -2.38978 -0.16 -0.453052
v -2.136 0.4061687 -0.453052
v -2.38978 0.4061687 -0.453052
v -2.38978 -0.16 -1.06498
v -2.38978 0.4061687 -1.06498
v -2.136 -0.16 -1.06498
v -2.136 0.4061687 -1.06498

vt -3.576279E-07 0
vt -0.3172245 0
vt 0 0.7077109
vt -0.3172245 0.7077109
vt 4.213685 0
vt 3.448775 0
vt 4.213685 0.7077109
vt 3.448775 0.7077109
vt 0.3172245 0
vt 0.3172245 0.7077109
vt -3.448775 0
vt -4.213685 0
vt -3.448775 0.7077109
vt -4.213685 0.7077109
vt 0 4.213685
vt 0.3172245 4.213685
vt 0 3.448775
vt 0.3172245 3.448775
vt -0.3172245 3.448775
vt -0.3172245 4.213685

vn 0 0 0.8
vn -0.8 0 0
vn 0 0 -0.8
vn 0.8 0 3.740338E-07
vn 0 0.8 0
vn 0 -0.8 0

usemtl ProBuilderDefault_2
f 43/101/20 44/102/20 42/100/20 41/99/20
f 44/105/21 46/106/21 45/104/21 42/103/21
f 46/108/22 48/101/22 47/99/22 45/107/22
f 48/111/23 43/112/23 41/110/23 47/109/23
f 48/115/24 46/116/24 44/114/24 43/113/24
f 41/113/25 42/118/25 45/117/25 47/115/25

g Cube (3)
v 0.1999997 -0.16 3.034948
v -0.0537796 -0.16 3.034948
v 0.2 0.4061687 3.034948
v -0.0537796 0.4061687 3.034948
v -0.0537796 -0.16 2.42302
v -0.0537796 0.4061687 2.42302
v 0.2 -0.16 2.42302
v 0.2 0.4061687 2.42302

vt -3.576279E-07 0
vt -0.3172245 0
vt 0 0.7077109
vt -0.3172245 0.7077109
vt 4.213685 0
vt 3.448775 0
vt 4.213685 0.7077109
vt 3.448775 0.7077109
vt 0.3172245 0
vt 0.3172245 0.7077109
vt -3.448775 0
vt -4.213685 0
vt -3.448775 0.7077109
vt -4.213685 0.7077109
vt 0 4.213685
vt 0.3172245 4.213685
vt 0 3.448775
vt 0.3172245 3.448775
vt -0.3172245 3.448775
vt -0.3172245 4.213685

vn 0 0 0.8
vn -0.8 0 0
vn 0 0 -0.8
vn 0.8 0 3.740338E-07
vn 0 0.8 0
vn 0 -0.8 0

usemtl ProBuilderDefault_2
f 51/121/26 52/122/26 50/120/26 49/119/26
f 52/125/27 54/126/27 53/124/27 50/123/27
f 54/128/28 56/121/28 55/119/28 53/127/28
f 56/131/29 51/132/29 49/130/29 55/129/29
f 56/135/30 54/136/30 52/134/30 51/133/30
f 49/133/31 50/138/31 53/137/31 55/135/31

g Cube (4)
v 0.1999997 -0.16 -0.4530525
v -0.0537796 -0.16 -0.4530525
v 0.2 0.4061687 -0.4530525
v -0.0537796 0.4061687 -0.4530525
v -0.0537796 -0.16 -1.064981
v -0.0537796 0.4061687 -1.064981
v 0.2 -0.16 -1.064981
v 0.2 0.4061687 -1.064981

vt -3.576279E-07 0
vt -0.3172245 0
vt 0 0.7077109
vt -0.3172245 0.7077109
vt 4.213685 0
vt 3.448775 0
vt 4.213685 0.7077109
vt 3.448775 0.7077109
vt 0.3172245 0
vt 0.3172245 0.7077109
vt -3.448775 0
vt -4.213685 0
vt -3.448775 0.7077109
vt -4.213685 0.7077109
vt 0 4.213685
vt 0.3172245 4.213685
vt 0 3.448775
vt 0.3172245 3.448775
vt -0.3172245 3.448775
vt -0.3172245 4.213685

vn 0 0 0.8
vn -0.8 0 0
vn 0 0 -0.8
vn 0.8 0 3.740338E-07
vn 0 0.8 0
vn 0 -0.8 0

usemtl ProBuilderDefault_2
f 59/141/32 60/142/32 58/140/32 57/139/32
f 60/145/33 62/146/33 61/144/33 58/143/33
f 62/148/34 64/141/34 63/139/34 61/147/34
f 64/151/35 59/152/35 57/150/35 63/149/35
f 64/155/36 62/156/36 60/154/36 59/153/36
f 57/153/37 58/158/37 61/157/37 63/155/37

